# xmcd
#
# Track frame offsets:
#	150
#	17598
#	32698
#	65776
#	81715
#	96223
#	117406
#	127678
#	138844
#	157748
#	172666
#	186212
#	199028
#	214415
#	230975
#	271280
#
# Disc length: 4441 seconds
#
# Revision: 0
# Processed by: cddbd v1.5.2PL0 Copyright (c) Steve Scherf et al.
# Submitted via: audiograbber 1.83.01
#
DISCID=de115710
DTITLE=Willie Nelson - The Complete Atlantic Sessions CD3
DYEAR=2006
DGENRE=Country
TTITLE0=Whiskey River
TTITLE1=Me And Paul
TTITLE2=Medley: Funny How Time Slips Away\\ Crazy \\night Life
TTITLE3=Stay All Night (Stay A Little Longer)
TTITLE4=Walkin'
TTITLE5=Bloody Mary Morning \\ Take Me Back To Tulsa
TTITLE6=The Party's Over
TTITLE7=Truck Drivin' Man
TTITLE8=She Thinks I Still Care
TTITLE9=Good Hearted Woman
TTITLE10=Sister's Comin' Home
TTITLE11=Shotgun Willie (Bonus, Prev. Unrel.)
TTITLE12=You Look Like The Devil (Bonus, Prev. Unrel.)
TTITLE13=Bloody Mary Morning (Bonus, Prev. Unrel., Electric Guitar Version)
TTITLE14=Medley: Funny How Time Slips Away\\Crazy\\Night Life (Bonus, Prev. Unr
TTITLE14=el.)
TTITLE15=Willies After Hours (Bonus, Prev. Unrel., Studio Track)
EXTD=
EXTT0=
EXTT1=
EXTT2=
EXTT3=
EXTT4=
EXTT5=
EXTT6=
EXTT7=
EXTT8=
EXTT9=
EXTT10=
EXTT11=
EXTT12=
EXTT13=
EXTT14=
EXTT15=
PLAYORDER=
